<?xml version="1.0" encoding="utf-8"?>
<!-- Generator: Adobe Illustrator 26.1.0, SVG Export Plug-In . SVG Version: 6.00 Build 0)  -->
<svg version="1.1" id="logo" xmlns="http://www.w3.org/2000/svg" xmlns:xlink="http://www.w3.org/1999/xlink" x="0px" y="0px"
	 viewBox="0 0 1000 1000" style="enable-background:new 0 0 1000 1000;" xml:space="preserve">
<style type="text/css">
	.st0{fill:#1E265A;}
	.st1{fill:url(#SVGID_1_);}
	.st2{fill:url(#SVGID_00000066512070972960976040000003800002303772292273_);}
	.st3{fill:url(#SVGID_00000179637669041470446200000005599555438161184678_);}
	.st4{fill:url(#SVGID_00000011750012271599220620000001448894012016310194_);}
	.st5{fill:#EC0834;}
	.st6{fill:#FFF600;}
</style>
<path class="st0" d="M783,1000H217C97.2,1000,0,902.8,0,783V217C0,97.2,97.2,0,217,0h566c119.8,0,217,97.2,217,217v566
	C1000,902.8,902.8,1000,783,1000z"/>
<radialGradient id="SVGID_1_" cx="-4016.4128" cy="495.3336" r="573.0074" gradientTransform="matrix(-1 0 0 -1 -3262.4199 1106)" gradientUnits="userSpaceOnUse">
	<stop  offset="0" style="stop-color:#1F7DF1"/>
	<stop  offset="0.73" style="stop-color:#1F7DF1;stop-opacity:0"/>
</radialGradient>
<path class="st1" d="M759.8,654.9L577.4,802.6c-45.1,36.5-109.7,36.5-154.8,0L240.2,654.9c-26.4-21.4-30.5-60.1-9.1-86.5
	c2.7-3.4,5.8-6.4,9.1-9.1l182.4-147.8c45.1-36.5,109.7-36.5,154.8,0l182.4,147.8c26.4,21.4,30.5,60.1,9.1,86.5
	C766.3,649.2,763.2,652.2,759.8,654.9z"/>
<radialGradient id="SVGID_00000159465732949960683480000015312125151253121420_" cx="-516.973" cy="7643.0386" r="449.2759" gradientTransform="matrix(-0.54 -0.84 1.13 -0.73 -8617.7803 5998.4897)" gradientUnits="userSpaceOnUse">
	<stop  offset="0" style="stop-color:#4DC2A1"/>
	<stop  offset="0.27" style="stop-color:#4DC2A1;stop-opacity:0.67"/>
	<stop  offset="0.58" style="stop-color:#4DC2A1;stop-opacity:0.31"/>
	<stop  offset="0.81" style="stop-color:#4DC2A1;stop-opacity:9.000000e-02"/>
	<stop  offset="0.93" style="stop-color:#4DC2A1;stop-opacity:0"/>
</radialGradient>
<path style="fill:url(#SVGID_00000159465732949960683480000015312125151253121420_);" d="M240.2,559.3l182.4-147.8
	c45.1-36.5,109.7-36.5,154.8,0l182.4,147.8c26.4,21.4,30.5,60.1,9.1,86.5c-2.7,3.4-5.8,6.4-9.1,9.1L577.4,802.6
	c-45.1,36.5-109.7,36.5-154.8,0L240.2,654.9c-26.4-21.4-30.5-60.1-9.1-86.5C233.7,565.1,236.8,562,240.2,559.3z"/>
<radialGradient id="SVGID_00000095316548343772332620000001736596328838089364_" cx="52.0018" cy="8094.0654" r="573.0074" gradientTransform="matrix(1 0 0 1 194 -7713.3398)" gradientUnits="userSpaceOnUse">
	<stop  offset="0.17" style="stop-color:#F05E56"/>
	<stop  offset="0.22" style="stop-color:#F05E56;stop-opacity:0.96"/>
	<stop  offset="0.31" style="stop-color:#F05E56;stop-opacity:0.84"/>
	<stop  offset="0.42" style="stop-color:#F05E56;stop-opacity:0.65"/>
	<stop  offset="0.56" style="stop-color:#F05E56;stop-opacity:0.38"/>
	<stop  offset="0.72" style="stop-color:#F05E56;stop-opacity:4.000000e-02"/>
	<stop  offset="0.74" style="stop-color:#F05E56;stop-opacity:0"/>
</radialGradient>
<path style="fill:url(#SVGID_00000095316548343772332620000001736596328838089364_);" d="M240.2,336.5l182.4-147.8
	c45.1-36.5,109.7-36.5,154.8,0l182.4,147.8c26.4,21.4,30.5,60.1,9.1,86.5c-2.7,3.4-5.8,6.4-9.1,9.1L577.4,579.8
	c-45.1,36.5-109.7,36.5-154.8,0L240.2,432.1c-26.4-21.4-30.5-60.1-9.1-86.5C233.7,342.2,236.8,339.2,240.2,336.5z"/>
<radialGradient id="SVGID_00000145760251067760675950000017268355847771710904_" cx="-3310.3298" cy="770.8685" r="449.2759" gradientTransform="matrix(0.54 0.84 -1.13 0.73 3201.49 2406.24)" gradientUnits="userSpaceOnUse">
	<stop  offset="0" style="stop-color:#EA66CB"/>
	<stop  offset="2.000000e-02" style="stop-color:#EA66CB;stop-opacity:0.96"/>
	<stop  offset="0.16" style="stop-color:#EA66CB;stop-opacity:0.71"/>
	<stop  offset="0.29" style="stop-color:#EA66CB;stop-opacity:0.49"/>
	<stop  offset="0.43" style="stop-color:#EA66CB;stop-opacity:0.32"/>
	<stop  offset="0.56" style="stop-color:#EA66CB;stop-opacity:0.18"/>
	<stop  offset="0.68" style="stop-color:#EA66CB;stop-opacity:8.000000e-02"/>
	<stop  offset="0.8" style="stop-color:#EA66CB;stop-opacity:2.000000e-02"/>
	<stop  offset="0.9" style="stop-color:#EA66CB;stop-opacity:0"/>
</radialGradient>
<path style="fill:url(#SVGID_00000145760251067760675950000017268355847771710904_);" d="M759.8,432.1L577.4,579.8
	c-45.1,36.5-109.7,36.5-154.8,0L240.2,432.1c-26.4-21.4-30.5-60.1-9.1-86.5c2.7-3.4,5.8-6.4,9.1-9.1l182.4-147.8
	c45.1-36.5,109.7-36.5,154.8,0l182.4,147.8c26.4,21.4,30.5,60.1,9.1,86.5C766.3,426.3,763.2,429.3,759.8,432.1z"/>
<path class="st5" d="M680.4,1000.1h102.7c119.8,0,217-97.2,217-217v-76.5c0-0.4-0.3-0.7-0.7-0.7h-102
	c-120.2,0-217.7,97.5-217.7,217.7v75.8C679.7,999.8,680,1000.1,680.4,1000.1z"/>
<polygon class="st6" points="839.9,774.4 788.8,931.6 922.7,834.6 757.2,834.6 891.1,931.6 "/>
</svg>
